<svg width="21" height="15" viewBox="0 0 21 15" fill="none" xmlns="http://www.w3.org/2000/svg">
    <path fill-rule="evenodd" clip-rule="evenodd" d="M15.2647 0.102277C13.4779 0.102277 11.8536 0.565404 10.5 1.39112C9.14638 0.565404 7.52205 0.101538 5.73529 0.101538H0.375V12.1205C0.375 12.716 0.85147 13.2037 1.44706 13.2037L5.73529 13.2044C6.68822 13.2044 7.59723 13.3656 8.40416 13.7069C9.00635 13.9616 10.0601 14.72 10.0601 14.72C10.2617 14.8602 10.327 14.9078 10.5 14.9078C10.6729 14.9078 10.7382 14.8602 10.9398 14.72C10.9398 14.72 11.9936 13.9616 12.5958 13.7069C13.4027 13.3656 14.3117 13.2037 15.2647 13.2037L19.5529 13.2029C19.8387 13.2018 20.1123 13.087 20.3134 12.8839C20.5145 12.6809 20.6266 12.4062 20.625 12.1205V0.1008L15.2647 0.102277ZM19.4338 11.4145C19.434 11.744 19.1677 12.0116 18.8382 12.013H15.2647C14.0735 12.013 13.0859 12.206 12.1321 12.6093C11.681 12.8001 10.8573 13.3116 10.8573 13.3116C10.7594 13.3823 10.6191 13.4129 10.5 13.4129C10.3809 13.4129 10.2405 13.3823 10.1426 13.3116C10.1426 13.3116 9.31901 12.8001 8.86784 12.6093C7.91404 12.2059 6.92646 12.013 5.73529 12.013H2.16176C1.83226 12.0116 1.56594 11.744 1.56617 11.4145V10.8204H5.73383C7.52059 10.8204 9.14638 11.2859 10.5 12.1116C11.8536 11.286 13.4779 10.8219 15.2647 10.8219H19.4338V11.4145ZM2.16176 2.48188H6.92646C7.25311 2.48601 7.51574 2.75198 7.51574 3.07866C7.51574 3.40533 7.25311 3.67131 6.92646 3.67543H2.16176C1.83511 3.67131 1.57248 3.40533 1.57248 3.07866C1.57248 2.75198 1.83511 2.48601 2.16176 2.48188ZM2.16176 4.86661H6.92646C7.25539 4.86661 7.52205 5.13326 7.52205 5.46219C7.52205 5.79112 7.25539 6.05778 6.92646 6.05778H2.16176C1.83539 6.0542 1.5727 5.78861 1.5727 5.46223C1.5727 5.13584 1.83539 4.87018 2.16176 4.86661ZM2.16176 7.24673H4.54411C4.87374 7.24673 5.14096 7.51395 5.14096 7.84358C5.14096 8.17321 4.87374 8.44043 4.54411 8.44043H2.16176C1.8347 8.43685 1.57144 8.1707 1.57144 7.84362C1.57144 7.51653 1.8347 7.25031 2.16176 7.24673ZM15.5797 2.46006C16.0331 2.46224 16.3991 2.83118 16.3976 3.28459C16.3962 3.738 16.0278 4.10459 15.5744 4.10387C15.121 4.10314 14.7538 3.73538 14.7538 3.28197C14.7549 2.82695 15.1247 2.45898 15.5797 2.46006ZM16.9562 9.03532H14.4785V8.75328L14.5367 8.75144C14.708 8.74594 14.8353 8.69753 14.9152 8.6075C14.9435 8.57494 14.9918 8.46394 14.9918 8.09075V5.60096C14.9918 5.24599 14.942 5.11218 14.9003 5.06243C14.8412 4.99239 14.7184 4.95125 14.535 4.94017L14.4785 4.93679V4.65181H16.4056V8.09075C16.4056 8.44598 16.4987 8.5797 16.5404 8.6293C16.5992 8.69929 16.713 8.74044 16.8996 8.75149L16.9562 8.75483V9.03532Z" fill="black"/>
</svg>
