<svg width="26" height="15" viewBox="0 0 26 15" fill="none" xmlns="http://www.w3.org/2000/svg">
    <path fill-rule="evenodd" clip-rule="evenodd" d="M12.298 0.334141C12.2924 0.339696 12.1659 0.351203 12.0195 0.359536C9.98733 0.492066 7.64585 1.25748 5.61683 2.45461C4.31952 3.21963 3.32874 3.98227 2.33797 4.97862C1.67389 5.64762 1.19531 6.24083 0.784361 6.90149L0.728245 6.99208C0.575244 7.2387 0.522966 7.32296 0.532293 7.39974C0.537133 7.4396 0.558569 7.47743 0.591131 7.5349L0.612705 7.57326C0.860301 8.02204 1.33058 8.68587 1.73559 9.14893C3.82394 11.5547 6.98454 13.4292 10.1198 14.1295C10.5027 14.2144 11.0711 14.3128 11.3582 14.3442C11.4512 14.3525 11.5496 14.3668 11.575 14.3723C11.8621 14.4259 13.7618 14.4485 14.3416 14.4061C17.0153 14.2085 19.9169 13.0566 22.36 11.2269C23.3646 10.473 24.4286 9.43383 25.0701 8.58152C25.2924 8.28511 25.5459 7.90101 25.7116 7.61572L25.8438 7.38399L25.7116 7.14949C25.5174 6.81062 25.1405 6.25432 24.921 5.97775C24.5722 5.54009 23.8994 4.82863 23.4714 4.44176C23.2574 4.24971 23.1843 4.18781 22.9394 3.98148C21.1015 2.43993 18.6504 1.19479 16.4521 0.686495C15.7793 0.531348 15.3771 0.460718 14.8902 0.407151C14.7709 0.394692 14.6487 0.37927 14.5728 0.369693L14.5727 0.369684L14.5725 0.369661L14.5724 0.369641C14.5445 0.36613 14.523 0.363408 14.5101 0.361917C14.4116 0.342077 12.3177 0.316682 12.298 0.333744V0.334141ZM13.8767 2.35251C15.2725 2.5644 16.5476 3.3691 17.3244 4.52933C18.1068 5.70106 18.3686 7.05334 18.0814 8.46513C17.7832 9.94756 16.7082 11.3026 15.3037 11.9692C14.8026 12.2065 14.3189 12.3505 13.781 12.4212C13.5021 12.4581 12.6806 12.4581 12.4694 12.4212C11.8979 12.3252 11.583 12.2347 11.1381 12.0486C10.0801 11.6026 9.13438 10.713 8.61625 9.67694C8.33187 9.10397 8.20807 8.6917 8.09297 7.90367C8.07043 7.75686 8.07043 7.00572 8.09297 6.85891C8.20846 6.07961 8.33226 5.65623 8.61625 5.08563C9.33965 3.63733 10.7888 2.58702 12.3848 2.35807C12.4447 2.34921 12.5077 2.3396 12.5599 2.33163L12.56 2.33162L12.5601 2.3316L12.5603 2.33157C12.6085 2.32422 12.6474 2.31827 12.6664 2.31561C12.8044 2.29577 13.6682 2.32117 13.8767 2.35251ZM23.6962 7.16672C22.5706 5.70136 20.8509 4.33757 18.9231 3.38606L18.9227 3.38566L18.8873 3.36816C18.5789 3.21577 18.461 3.15752 18.4472 3.1762C18.4386 3.18776 18.4699 3.22876 18.5206 3.29514L18.5315 3.30948C19.2692 4.28083 19.7671 5.58549 19.8629 6.78818C19.9922 8.41146 19.5757 9.96174 18.6498 11.2858C18.5343 11.4521 18.4445 11.5878 18.4528 11.5878C18.4868 11.5878 19.4578 11.0882 19.7561 10.9188C20.4791 10.5065 21.405 9.85421 22.0525 9.30663C22.6323 8.81262 23.7073 7.66628 23.8173 7.42067C23.8426 7.36988 23.8228 7.3306 23.6962 7.16672ZM7.63769 3.44823C7.18719 4.0835 6.84388 4.79773 6.64414 5.51236C6.27275 6.83368 6.30083 8.22842 6.72839 9.52752C6.93089 10.1485 7.31652 10.8969 7.67408 11.3683C7.74448 11.4615 7.79787 11.5405 7.79234 11.546C7.78087 11.5603 6.96491 11.148 6.67222 10.9842C5.12139 10.1005 3.7339 8.95415 2.78267 7.76536C2.65887 7.61299 2.54615 7.45745 2.52954 7.42094C2.50146 7.3646 2.52954 7.31936 2.77714 7.00867C3.31742 6.33372 4.23226 5.4699 5.05415 4.85447C5.40577 4.58902 6.14895 4.09779 6.50373 3.89185C6.79641 3.72242 7.75318 3.23119 7.76465 3.24507C7.77019 3.25063 7.71402 3.3411 7.63808 3.44823H7.63769ZM10.1482 6.59081C10.4943 5.32861 11.5527 4.42828 12.85 4.29258H12.8496C13.1028 4.26679 13.6039 4.30646 13.8713 4.37709C14.0204 4.414 14.1497 4.44495 14.1584 4.44495C14.1671 4.44495 14.1105 4.47867 14.0318 4.51835C13.7166 4.67945 13.4607 4.95602 13.3424 5.26393C13.2467 5.50121 13.2357 5.88253 13.3088 6.13093C13.4832 6.70707 13.9927 7.09672 14.578 7.10228C14.9186 7.10545 15.1519 7.03205 15.4363 6.82294C15.5997 6.70152 15.7966 6.44439 15.8643 6.26107C15.8896 6.18489 15.9204 6.11466 15.9319 6.10315C15.977 6.05236 16.174 6.72136 16.2021 7.01498C16.312 8.17243 15.8698 9.19458 14.9609 9.88063C14.7809 10.0159 14.3166 10.2588 14.0999 10.3294C13.596 10.4933 12.9177 10.5215 12.428 10.3973C12.0309 10.2953 11.7441 10.1683 11.4119 9.94531C10.7253 9.48503 10.2554 8.7704 10.0948 7.93198C10.0272 7.57883 10.0525 6.93801 10.1482 6.59081Z" fill="black"/>
</svg>
