<svg width="23" height="23" viewBox="0 0 23 23" fill="none" xmlns="http://www.w3.org/2000/svg">
    <path fill-rule="evenodd" clip-rule="evenodd" d="M21.2818 18.0996L10.1583 6.97576C10.8888 4.24263 9.26504 1.43512 6.53241 0.704957C5.56304 0.445801 4.53847 0.477339 3.58692 0.795455L6.4618 3.67016C6.74733 3.95606 6.74733 4.41918 6.4618 4.70473L4.26802 6.89829C3.98249 7.18384 3.51974 7.18384 3.2342 6.89829L0.35898 4.02324C-0.537385 6.70633 0.910167 9.60811 3.59309 10.5045C4.54499 10.8226 5.56921 10.8542 6.53892 10.595L17.6624 21.7195C18.6616 22.7188 20.2823 22.7188 21.2818 21.7195C22.281 20.7199 22.281 19.0992 21.2818 18.0996Z" fill="black"/>
</svg>
