<svg width="18" height="25" viewBox="0 0 18 25" fill="none" xmlns="http://www.w3.org/2000/svg">
    <path fill-rule="evenodd" clip-rule="evenodd" d="M12.4368 9.62145H5.26801V6.02301C5.26801 4.03607 6.87284 2.42496 8.85242 2.42496C10.832 2.42496 12.4368 4.03607 12.4368 6.02301V9.62145ZM9.9004 17.2636L10.2862 21.1358H7.4185L7.80428 17.2636C6.76689 16.6829 6.39557 15.3677 6.97444 14.3266C7.55331 13.2852 8.863 12.912 9.9004 13.4931C10.9374 14.0743 11.3091 15.3895 10.7306 16.4309C10.536 16.7804 10.2485 17.0686 9.9004 17.2636ZM15.304 9.62148H14.5869V6.02305C14.5869 2.85664 12.0064 0.265625 8.85229 0.265625C5.69822 0.265625 3.1173 2.85664 3.1173 6.02305V9.62148H0.25V22.5754C0.25 23.7679 1.21275 24.7344 2.40019 24.7344H17.4546V11.7801C17.4546 10.588 16.4915 9.62148 15.304 9.62148Z" fill="black"/>
</svg>
