<svg width="23" height="23" viewBox="0 0 23 23" fill="none" xmlns="http://www.w3.org/2000/svg">
    <path fill-rule="evenodd" clip-rule="evenodd" d="M13.4295 16.5054C13.2708 16.6638 13.0141 16.6638 12.8554 16.5054L11.2697 14.9198L11.2694 14.9191C11.2649 14.9146 11.2604 14.9102 11.256 14.9054C11.2539 14.903 11.2515 14.9002 11.2498 14.8982C11.2478 14.8954 11.2454 14.893 11.2433 14.8903C11.2406 14.8872 11.2382 14.8841 11.2358 14.8807C11.234 14.8786 11.2327 14.8769 11.231 14.8748C11.2286 14.8711 11.2258 14.8676 11.2234 14.8642C11.2224 14.8622 11.221 14.8605 11.2197 14.8587C11.2173 14.855 11.2149 14.8512 11.2125 14.8474C11.2111 14.8454 11.2101 14.8437 11.209 14.8416C11.207 14.8382 11.2049 14.8344 11.2025 14.8303C11.2015 14.8282 11.2001 14.8265 11.1991 14.8245C11.197 14.8207 11.1953 14.8173 11.1939 14.8135C11.1926 14.8114 11.1912 14.809 11.1902 14.8063C11.1885 14.8029 11.1871 14.7998 11.1857 14.7967C11.1843 14.7936 11.183 14.7909 11.1819 14.7878C11.1806 14.785 11.1799 14.7823 11.1785 14.7792C11.1775 14.7761 11.1758 14.7724 11.1747 14.7693C11.1737 14.7665 11.173 14.7641 11.172 14.7614C11.1706 14.7576 11.1696 14.7538 11.1682 14.7501L11.1662 14.7429C11.1655 14.7391 11.1641 14.735 11.1631 14.7309C11.1628 14.7285 11.1621 14.7268 11.1617 14.7244C11.1607 14.7199 11.1597 14.7158 11.1586 14.7117C11.1583 14.7093 11.158 14.7072 11.1576 14.7048C11.1566 14.7004 11.1559 14.6966 11.1552 14.6921C11.1549 14.6894 11.1545 14.6867 11.1542 14.6846C11.1538 14.6805 11.1532 14.6764 11.1528 14.6723C11.1525 14.6692 11.1525 14.6658 11.1521 14.6623C11.1518 14.6589 11.1514 14.6558 11.1514 14.6527C11.1514 14.6459 11.1511 14.6394 11.1511 14.6325V11.6565C11.1511 11.4324 11.3324 11.2507 11.5566 11.2504C11.7808 11.2504 11.9628 11.4317 11.9628 11.6562V11.6565V14.4649L13.4295 15.9313C13.5879 16.09 13.5879 16.3467 13.4295 16.5054ZM11.5624 10.439C9.02213 10.439 6.96275 12.4984 6.96275 15.0387C6.96275 17.579 9.02213 19.6387 11.5624 19.6387C14.1027 19.6387 16.1621 17.579 16.1621 15.0387C16.1621 12.4984 14.1027 10.439 11.5624 10.439ZM14.7468 5.13118C14.7464 4.57452 15.0083 4.05008 15.4543 3.71587V5.13118C15.4543 5.71767 15.9297 6.1931 16.5158 6.1931C17.1023 6.1931 17.5778 5.71767 17.5778 5.13118L17.5774 4.77744H17.5778V3.73027C18.0223 4.0583 18.2852 4.57829 18.2852 5.13118C18.2852 6.10843 17.4927 6.90058 16.5158 6.90058C15.5389 6.90058 14.7468 6.10843 14.7468 5.13118ZM4.83925 5.13118C4.8389 4.57452 5.10147 4.05008 5.54707 3.71587V5.13118C5.54707 5.71767 6.0225 6.1931 6.60899 6.1931C7.19513 6.1931 7.67021 5.71767 7.67021 5.13118V4.77744H7.67055V3.71622C8.45208 4.3027 8.6101 5.41192 8.02361 6.1931C7.43747 6.97462 6.32825 7.13298 5.54707 6.5465C5.10147 6.21263 4.83925 5.68819 4.83925 5.13118ZM21.1158 21.054H3.07016C2.48402 21.054 2.00894 20.5786 2.00894 19.9924V9.02367H20.0542C20.6404 9.02367 21.1158 9.4991 21.1158 10.0852V21.054ZM20.408 2.65463H17.5777V1.57901C17.5777 0.992867 17.1023 0.531494 16.5158 0.531494C15.9297 0.531494 15.4543 1.00692 15.4543 1.59306V2.65463H7.67056L7.67022 1.59306C7.67022 1.00692 7.19513 0.531494 6.60899 0.531494C6.0225 0.531494 5.54708 1.00692 5.54708 1.59306V2.65463H0.593658V20.3462C0.593658 21.5188 1.54383 22.469 2.71645 22.469H22.5312V4.77743C22.5312 3.60514 21.5806 2.65463 20.408 2.65463Z" fill="black"/>
</svg>
