<svg width="10" height="10" viewBox="0 0 10 10" fill="none" xmlns="http://www.w3.org/2000/svg">
    <mask id="path-1-inside-1_340_6785" fill="white">
        <path d="M5 0C5.98891 1.17926e-08 6.95561 0.293245 7.77785 0.842652C8.6001 1.39206 9.24096 2.17295 9.6194 3.08658C9.99784 4.00021 10.0969 5.00555 9.90393 5.97545C9.711 6.94536 9.2348 7.83627 8.53553 8.53553C7.83627 9.2348 6.94536 9.711 5.97545 9.90393C5.00555 10.0969 4.00021 9.99784 3.08658 9.6194C2.17295 9.24096 1.39206 8.6001 0.842652 7.77785C0.293245 6.95561 -2.35852e-08 5.98891 0 5H2C2 5.59334 2.17595 6.17336 2.50559 6.66671C2.83524 7.16006 3.30377 7.54458 3.85195 7.77164C4.40013 7.9987 5.00333 8.05811 5.58527 7.94236C6.16721 7.8266 6.70176 7.54088 7.12132 7.12132C7.54088 6.70176 7.8266 6.16721 7.94236 5.58527C8.05811 5.00333 7.9987 4.40013 7.77164 3.85195C7.54458 3.30377 7.16006 2.83524 6.66671 2.50559C6.17336 2.17595 5.59334 2 5 2V0Z"/>
    </mask>
    <path d="M5 0C5.98891 1.17926e-08 6.95561 0.293245 7.77785 0.842652C8.6001 1.39206 9.24096 2.17295 9.6194 3.08658C9.99784 4.00021 10.0969 5.00555 9.90393 5.97545C9.711 6.94536 9.2348 7.83627 8.53553 8.53553C7.83627 9.2348 6.94536 9.711 5.97545 9.90393C5.00555 10.0969 4.00021 9.99784 3.08658 9.6194C2.17295 9.24096 1.39206 8.6001 0.842652 7.77785C0.293245 6.95561 -2.35852e-08 5.98891 0 5H2C2 5.59334 2.17595 6.17336 2.50559 6.66671C2.83524 7.16006 3.30377 7.54458 3.85195 7.77164C4.40013 7.9987 5.00333 8.05811 5.58527 7.94236C6.16721 7.8266 6.70176 7.54088 7.12132 7.12132C7.54088 6.70176 7.8266 6.16721 7.94236 5.58527C8.05811 5.00333 7.9987 4.40013 7.77164 3.85195C7.54458 3.30377 7.16006 2.83524 6.66671 2.50559C6.17336 2.17595 5.59334 2 5 2V0Z" stroke="#3DE35A" stroke-width="10" mask="url(#path-1-inside-1_340_6785)"/>
</svg>
