<svg width="19" height="23" viewBox="0 0 19 23" fill="none" xmlns="http://www.w3.org/2000/svg">
    <path fill-rule="evenodd" clip-rule="evenodd" d="M2.01251 0.700012H16.8625C17.2205 0.700012 17.5639 0.842244 17.8171 1.09542C18.0703 1.34859 18.2125 1.69197 18.2125 2.05001V4.75001C18.2125 5.10805 18.0703 5.45143 17.8171 5.70461C17.5639 5.95778 17.2205 6.10001 16.8625 6.10001H2.01251C1.65446 6.10001 1.31109 5.95778 1.05791 5.70461C0.804738 5.45143 0.662506 5.10805 0.662506 4.75001V2.05001C0.662506 1.69197 0.804738 1.34859 1.05791 1.09542C1.31109 0.842244 1.65446 0.700012 2.01251 0.700012ZM2.01251 16.9H16.8625C17.2205 16.9 17.5639 17.0422 17.8171 17.2954C18.0703 17.5486 18.2125 17.892 18.2125 18.25V20.95C18.2125 21.3081 18.0703 21.6514 17.8171 21.9046C17.5639 22.1578 17.2205 22.3 16.8625 22.3H2.01251C1.65446 22.3 1.31109 22.1578 1.05791 21.9046C0.804738 21.6514 0.662506 21.3081 0.662506 20.95V18.25C0.662506 17.892 0.804738 17.5486 1.05791 17.2954C1.31109 17.0422 1.65446 16.9 2.01251 16.9ZM2.01251 8.80001H16.8625C17.2205 8.80001 17.5639 8.94224 17.8171 9.19542C18.0703 9.44859 18.2125 9.79197 18.2125 10.15V12.85C18.2125 13.2081 18.0703 13.5514 17.8171 13.8046C17.5639 14.0578 17.2205 14.2 16.8625 14.2H2.01251C1.65446 14.2 1.31109 14.0578 1.05791 13.8046C0.804738 13.5514 0.662506 13.2081 0.662506 12.85V10.15C0.662506 9.79197 0.804738 9.44859 1.05791 9.19542C1.31109 8.94224 1.65446 8.80001 2.01251 8.80001ZM2.01251 6.77501H16.8625V8.12501H2.01251V6.77501ZM2.01251 14.875H16.8625V16.225H2.01251V14.875ZM2.68751 2.72501C2.82101 2.72501 2.95151 2.7646 3.06252 2.83877C3.17352 2.91294 3.26004 3.01836 3.31112 3.1417C3.36221 3.26504 3.37558 3.40076 3.34954 3.5317C3.32349 3.66264 3.2592 3.78291 3.1648 3.87731C3.0704 3.97171 2.95013 4.036 2.81919 4.06204C2.68825 4.08809 2.55253 4.07472 2.42919 4.02363C2.30585 3.97254 2.20043 3.88602 2.12626 3.77502C2.05209 3.66402 2.01251 3.53351 2.01251 3.40001C2.01251 3.22099 2.08362 3.0493 2.21021 2.92271C2.3368 2.79613 2.50848 2.72501 2.68751 2.72501ZM2.68751 10.825C2.82101 10.825 2.95151 10.8646 3.06252 10.9388C3.17352 11.0129 3.26004 11.1184 3.31112 11.2417C3.36221 11.365 3.37558 11.5008 3.34954 11.6317C3.32349 11.7626 3.2592 11.8829 3.1648 11.9773C3.0704 12.0717 2.95013 12.136 2.81919 12.162C2.68825 12.1881 2.55253 12.1747 2.42919 12.1236C2.30585 12.0725 2.20043 11.986 2.12626 11.875C2.05209 11.764 2.01251 11.6335 2.01251 11.5C2.01251 11.321 2.08362 11.1493 2.21021 11.0227C2.3368 10.8961 2.50848 10.825 2.68751 10.825ZM2.68751 18.925C2.82101 18.925 2.95151 18.9646 3.06252 19.0388C3.17352 19.1129 3.26004 19.2184 3.31112 19.3417C3.36221 19.465 3.37558 19.6008 3.34954 19.7317C3.32349 19.8626 3.2592 19.9829 3.1648 20.0773C3.0704 20.1717 2.95013 20.236 2.81919 20.262C2.68825 20.2881 2.55253 20.2747 2.42919 20.2236C2.30585 20.1725 2.20043 20.086 2.12626 19.975C2.05209 19.864 2.01251 19.7335 2.01251 19.6C2.01251 19.421 2.08362 19.2493 2.21021 19.1227C2.3368 18.9961 2.50848 18.925 2.68751 18.925Z" fill="black"/>
</svg>
