<svg width="23" height="21" viewBox="0 0 23 21" fill="none" xmlns="http://www.w3.org/2000/svg">
    <path fill-rule="evenodd" clip-rule="evenodd" d="M11.9875 6.12607V4.77607H17.3875V6.12607H11.9875ZM11.9875 8.15107V6.80107H18.7375V8.15107H11.9875ZM11.9875 10.1761V8.82607H17.3875V10.1761H11.9875ZM16.7125 18.9511H13.3375V16.9261H9.2875V18.9511H5.9125C5.73348 18.9511 5.56179 19.0222 5.4352 19.1488C5.30861 19.2754 5.2375 19.4471 5.2375 19.6261V20.3011H17.3875V19.6261C17.3875 19.4471 17.3164 19.2754 17.1898 19.1488C17.0632 19.0222 16.8915 18.9511 16.7125 18.9511ZM20.7625 0.726074H1.8625C1.50445 0.726074 1.16108 0.868306 0.907903 1.12148C0.654729 1.37465 0.512497 1.71803 0.512497 2.07607V14.9011C0.512497 15.2591 0.654729 15.6025 0.907903 15.8557C1.16108 16.1088 1.50445 16.2511 1.8625 16.2511H20.7625C21.1205 16.2511 21.4639 16.1088 21.7171 15.8557C21.9703 15.6025 22.1125 15.2591 22.1125 14.9011V2.07607C22.1125 1.71803 21.9703 1.37465 21.7171 1.12148C21.4639 0.868306 21.1205 0.726074 20.7625 0.726074ZM1.8625 2.10307V13.5511H20.7625V2.10307H1.8625ZM11.2855 14.1991C11.152 14.1991 11.0215 14.2387 10.9105 14.3128C10.7995 14.387 10.713 14.4924 10.6619 14.6158C10.6108 14.7391 10.5974 14.8748 10.6235 15.0058C10.6495 15.1367 10.7138 15.257 10.8082 15.3514C10.9026 15.4458 11.0229 15.5101 11.1538 15.5361C11.2847 15.5622 11.4205 15.5488 11.5438 15.4977C11.6671 15.4466 11.7726 15.3601 11.8467 15.2491C11.9209 15.1381 11.9605 15.0076 11.9605 14.8741C11.9605 14.6951 11.8894 14.5234 11.7628 14.3968C11.6362 14.2702 11.4645 14.1991 11.2855 14.1991ZM7.2625 4.10107C6.59498 4.10107 5.94246 4.29901 5.38745 4.66986C4.83243 5.04071 4.39985 5.56782 4.1444 6.18452C3.88896 6.80122 3.82212 7.47982 3.95235 8.1345C4.08257 8.78919 4.40401 9.39056 4.87601 9.86256C5.34801 10.3346 5.94938 10.656 6.60407 10.7862C7.25875 10.9165 7.93735 10.8496 8.55405 10.5942C9.17075 10.3387 9.69786 9.90614 10.0687 9.35112C10.4396 8.79611 10.6375 8.14359 10.6375 7.47607C10.6375 6.58097 10.2819 5.72252 9.64898 5.08959C9.01605 4.45665 8.1576 4.10107 7.2625 4.10107ZM9.60024 6.12637L7.2625 7.47607V4.77607C7.73635 4.77636 8.2018 4.90128 8.61212 5.13828C9.02245 5.37529 9.36322 5.71605 9.60024 6.12637Z" fill="black"/>
</svg>
