<svg width="23" height="23" viewBox="0 0 23 23" fill="none" xmlns="http://www.w3.org/2000/svg">
    <path fill-rule="evenodd" clip-rule="evenodd" d="M17.5094 15.8285C16.7032 17.7323 15.305 18.5971 12.9776 18.5971C11.4899 18.5971 10.2683 18.1703 9.34622 17.2668C8.491 16.4294 7.92954 15.3829 7.6752 14.0739H6.91767C6.36272 14.0739 6.01857 13.6396 6.01857 13.0925C6.01857 12.5365 6.35449 12.1105 6.91767 12.1105H7.51924C7.51752 11.9469 7.51752 11.6666 7.51752 11.5613C7.51752 11.4067 7.52301 11.2926 7.53089 11.1291H6.91767C6.36272 11.1291 6.01857 10.6945 6.01857 10.1474C6.01857 9.59998 6.36272 9.16569 6.91767 9.16569H7.73176C8.0214 7.85663 8.6216 6.55649 9.47647 5.73315C10.3937 4.84914 11.6044 4.40285 12.9776 4.40285C15.2262 4.40285 16.6874 5.31188 17.4449 7.18171C17.5207 7.3411 17.5591 7.51592 17.5567 7.69279C17.5567 8.12365 17.2996 8.47808 16.8516 8.66558L16.8351 8.67175L16.8177 8.67552C16.6895 8.71391 16.5208 8.75504 16.3573 8.75504C15.9244 8.75504 15.5761 8.50722 15.4017 8.08355C14.9187 6.91606 14.2846 6.49205 12.9776 6.49205C11.4659 6.49205 10.3862 7.36613 9.90425 9.16569H14.6928C15.2563 9.16569 15.5926 9.58524 15.5926 10.1303C15.5926 10.6883 15.2477 11.1291 14.6928 11.1291H9.62729C9.61907 11.2926 9.61358 11.3954 9.61358 11.5613C9.61358 11.6621 9.61358 11.9473 9.61598 12.1105H13.827C14.3987 12.1105 14.7264 12.5283 14.7264 13.0925C14.7264 13.6313 14.3737 14.0742 13.827 14.0742H9.83981C10.2731 15.8738 11.3758 16.5192 12.9776 16.5192C14.3607 16.5192 14.9677 16.1048 15.3831 15.0631L15.3845 15.0593L15.3866 15.0552C15.585 14.5918 15.9419 14.3361 16.3906 14.3361C16.5184 14.3378 16.6456 14.359 16.7673 14.3988C17.254 14.5318 17.6064 14.9544 17.6064 15.3973C17.6084 15.5468 17.5748 15.6941 17.5094 15.8285ZM11.8125 0.53125C5.75466 0.53125 0.84375 5.44216 0.84375 11.5C0.84375 17.5578 5.75466 22.4688 11.8125 22.4688C17.8703 22.4688 22.7812 17.5578 22.7812 11.5C22.7812 5.44216 17.8703 0.53125 11.8125 0.53125Z" fill="black"/>
</svg>
