<svg width="25" height="25" viewBox="0 0 25 25" fill="none" xmlns="http://www.w3.org/2000/svg">
    <path fill-rule="evenodd" clip-rule="evenodd" d="M20.523 13.071C20.5197 13.0746 20.5166 13.0777 20.5129 13.081L19.8149 13.7779L18.6305 12.5951L19.5235 11.7035L20.512 12.6907C20.6219 12.8004 20.6268 12.9674 20.523 13.071ZM19.2332 14.3537C19.2304 14.3577 19.2268 14.3611 19.2228 14.3644C17.6415 15.9442 14.3212 19.2604 13.2967 20.2839L10.7775 21.5831L12.1125 19.1008L18.2248 13.0037L19.2225 13.9735C19.2735 14.0238 19.304 14.0914 19.3076 14.1627C19.311 14.234 19.2838 14.3035 19.2332 14.3537ZM8.55629 14.0557C8.36768 13.7608 8.04355 12.6978 7.96756 12.7008C7.94192 12.7032 7.91873 12.7172 7.90499 12.7389C7.88882 12.7608 6.08812 15.7026 6.02555 15.7465L5.33244 14.9412C5.87601 14.2066 7.13314 12.2081 7.26346 12.078C8.62405 10.7194 9.06446 13.1182 9.18104 13.354C9.49479 12.8218 11.0416 9.69749 11.2335 9.69719C11.5107 9.69658 12.7095 11.4016 13.1569 11.9296C13.2937 12.0914 13.8091 12.5716 14.2807 12.5713C15.2656 12.5707 17.0675 10.2843 17.0675 10.2843C16.697 10.9757 15.6394 13.3056 14.1662 13.4698C13.4807 13.5463 13.109 13.2023 12.8819 13.0204C12.0316 12.3404 11.5601 11.0793 11.3297 11.0793C11.2796 11.0793 11.2717 11.1085 11.2555 11.1304C11.2451 11.1445 10.2203 13.805 10.0857 14.0018C9.78199 14.4448 9.00738 14.7626 8.55629 14.0557ZM21.1715 12.8662C21.1648 12.6475 21.0742 12.4397 20.9185 12.2852L19.9297 11.2977L19.5237 10.8925L19.1178 11.2977L18.4369 11.9726V8.48513H14.9845C13.7176 8.48452 12.6915 7.45864 12.6921 6.19449V6.19114V2.75H3.5V21.098H3.50031C3.50031 21.0995 3.5 21.101 3.5 21.1029C3.5 21.7363 4.01396 22.2497 4.64817 22.25H18.4369V15.964L20.9097 13.4957C20.9182 13.4875 20.9265 13.4793 20.9353 13.4704C21.0925 13.3089 21.1779 13.0911 21.1715 12.8662ZM14.8569 7.33829H18.4369L13.8409 2.75V6.19114C13.8409 6.82459 14.2929 7.33829 14.8569 7.33829Z" fill="black"/>
</svg>
