<svg width="23" height="14" viewBox="0 0 23 14" fill="none" xmlns="http://www.w3.org/2000/svg">
    <path fill-rule="evenodd" clip-rule="evenodd" d="M8.12859 12.8101C8.12859 13.2256 7.78369 13.5625 7.35825 13.5625H6.88862C6.46317 13.5625 6.1183 13.2256 6.1183 12.8101L6.12031 3.84667H3.28082L6.56633 0.639859C6.84286 0.370047 7.2909 0.370047 7.56742 0.639859L10.8529 3.84667L8.12823 3.84667L8.12859 12.8101Z" fill="#CCCCCC"/>
    <g clip-path="url(#clip0_340_6307)">
        <path fill-rule="evenodd" clip-rule="evenodd" d="M14.8714 1.18985C14.8714 0.774356 15.2163 0.4375 15.6418 0.4375L16.1114 0.4375C16.5368 0.4375 16.8817 0.774357 16.8817 1.18985L16.8797 10.1533L19.7192 10.1533L16.4337 13.3601C16.1571 13.63 15.7091 13.63 15.4326 13.3601L12.1471 10.1533L14.8718 10.1533L14.8714 1.18985Z" fill="#CCCCCC"/>
    </g>
    <defs>
        <clipPath id="clip0_340_6307">
            <rect x="23" y="14" width="14" height="14" transform="rotate(-180 23 14)" fill="white"/>
        </clipPath>
    </defs>
</svg>