<svg width="16" height="16" viewBox="0 0 16 16" fill="none" xmlns="http://www.w3.org/2000/svg">
    <path fill-rule="evenodd" clip-rule="evenodd" d="M9.45237 0.6875H14.247C14.8355 0.6875 15.3125 1.16453 15.3125 1.75298V6.54766L13.7131 4.94825L10.4888 8.17254C10.0688 8.59236 9.38806 8.59236 8.96806 8.17254L7.82749 7.03196C7.40766 6.61196 7.40766 5.93119 7.82749 5.5112L11.0518 2.28691L9.45237 0.6875ZM11.5344 13.85C12.005 13.8486 12.3861 13.4675 12.3875 12.9969V7.74908L13.85 6.28658V13.5575C13.85 14.5228 13.0602 15.3125 12.095 15.3125H2.4425C1.47725 15.3125 0.6875 14.5228 0.6875 13.5575V3.90501C0.6875 2.93976 1.47725 2.15001 2.4425 2.15001H9.71343L8.25093 3.61251H3.00312C2.53253 3.61389 2.15138 3.99504 2.15 4.46563V12.9969C2.15138 13.4675 2.53253 13.8486 3.00312 13.85H11.5344Z" fill="black"/>
</svg>