<svg width="24" height="24" viewBox="0 0 24 24" fill="none" xmlns="http://www.w3.org/2000/svg">
    <path fill-rule="evenodd" clip-rule="evenodd" d="M9.86725 15.0473C7.00651 15.0473 4.68752 12.7283 4.68752 9.86758C4.68752 7.00653 7.00651 4.68753 9.86725 4.68753C12.728 4.68753 15.047 7.00653 15.047 9.86758C15.047 12.7283 12.728 15.0473 9.86725 15.0473ZM21.5725 19.7947L16.0689 14.2914C16.9921 13.001 17.4872 11.4538 17.4845 9.86758C17.4845 5.66041 14.0744 2.25 9.86725 2.25C5.66009 2.25 2.25 5.66041 2.25 9.86758C2.25 14.0748 5.66009 17.4849 9.86725 17.4849C11.4538 17.4876 13.0013 16.9925 14.2913 16.0693L19.7943 21.5723C20.0329 21.8093 20.4177 21.8093 20.6563 21.5723L21.5725 20.6564C21.8093 20.4181 21.8093 20.033 21.5725 19.7947Z" fill="#F16E00"/>
</svg>