<svg width="16" height="16" viewBox="0 0 16 16" fill="none" xmlns="http://www.w3.org/2000/svg">
    <path fill-rule="evenodd" clip-rule="evenodd" d="M14.3984 6.51465H9.48535V1.60156C9.48535 1.09677 9.07608 0.6875 8.57129 0.6875H7.42871C6.92392 0.6875 6.51465 1.09677 6.51465 1.60156V6.51465H1.60156C1.09677 6.51465 0.6875 6.92392 0.6875 7.42871V8.57129C0.6875 9.07608 1.09677 9.48535 1.60156 9.48535H6.51465V14.3984C6.51465 14.9032 6.92392 15.3125 7.42871 15.3125H8.57129C9.07608 15.3125 9.48535 14.9032 9.48535 14.3984V9.48535H14.3984C14.9032 9.48535 15.3125 9.07608 15.3125 8.57129V7.42871C15.3125 6.92392 14.9032 6.51465 14.3984 6.51465Z" fill="white"/>
</svg>