<svg width="16" height="17" viewBox="0 0 16 17" fill="none" xmlns="http://www.w3.org/2000/svg">
    <path d="M7.9225 0.379862C7.91843 0.383927 7.81884 0.392057 7.70095 0.398155C6.72739 0.455065 5.66236 0.745712 4.72131 1.20709C4.12173 1.5018 3.51604 1.9022 2.99776 2.34529C2.79451 2.52008 2.25183 3.07089 2.0811 3.2782C1.44899 4.04039 0.963226 4.88998 0.658352 5.75785C0.617702 5.87574 0.577052 5.99362 0.566889 6.02208C0.483557 6.25581 0.337217 6.86963 0.282339 7.22125C0.272177 7.29442 0.25795 7.37165 0.253885 7.39604C0.24982 7.42043 0.239657 7.5119 0.231527 7.59929C0.223397 7.68669 0.20917 7.82897 0.20104 7.9123C0.178682 8.15213 0.18478 8.89196 0.213235 9.19277C0.24982 9.58911 0.259982 9.66024 0.314859 9.96512C0.615669 11.6013 1.37582 13.0484 2.54857 14.2252C2.99166 14.6683 3.32499 14.9468 3.77823 15.2496C3.88392 15.3187 3.99571 15.3939 4.0262 15.4142C4.24774 15.5667 4.89204 15.8919 5.26399 16.0382C5.90016 16.2923 6.3717 16.4203 7.09121 16.5402C7.53023 16.6114 8.43875 16.648 8.91029 16.6094C10.6704 16.4711 12.3046 15.7943 13.6155 14.6622C13.8147 14.4915 14.0423 14.2699 14.0423 14.2496C14.0423 14.2395 13.5606 13.7517 12.9733 13.1643L11.9042 12.0952L11.8188 12.1744C11.6684 12.3208 11.6155 12.3655 11.4509 12.4935C11.0708 12.7923 10.7375 12.9874 10.2213 13.2131C9.9489 13.333 9.43264 13.4712 9.0424 13.5301C8.75989 13.5748 8.06274 13.5891 7.78022 13.5565C6.80259 13.4488 5.84732 13.0525 5.11155 12.4488C4.1949 11.6988 3.55466 10.644 3.33515 9.51797C3.25385 9.10537 3.23962 8.9631 3.23962 8.51188C3.23962 8.03222 3.25792 7.85132 3.34531 7.43669C3.5506 6.46719 4.00994 5.62371 4.72131 4.91436C5.21115 4.42453 5.72334 4.07901 6.33918 3.81682C6.68267 3.67048 7.16031 3.53633 7.53836 3.48145C7.62169 3.46926 7.71315 3.453 7.7416 3.4469C7.77006 3.4408 7.98957 3.43471 8.2294 3.43064C8.57493 3.42454 8.72737 3.43267 8.9611 3.46316C10.0282 3.60544 10.9428 4.03226 11.7497 4.76396L11.9082 4.90623L9.84727 6.96719L12.4184 6.97328C14.2619 6.97735 15.022 6.97328 15.1094 6.95702C15.4834 6.88589 15.8025 6.58305 15.9021 6.20297C15.9265 6.11151 15.9326 5.67249 15.9326 3.48552V0.877824L14.9976 1.81481L14.0606 2.75179L13.8635 2.5648C12.9326 1.68879 11.7659 1.03026 10.516 0.676607C9.80459 0.47539 9.11354 0.379862 8.329 0.375797C8.10949 0.373765 7.92656 0.375797 7.9225 0.379862Z" fill="black"/>
</svg>