<svg width="14" height="14" viewBox="0 0 14 14" fill="none" xmlns="http://www.w3.org/2000/svg">
    <path fill-rule="evenodd" clip-rule="evenodd" d="M7.83361 11.0076C7.65614 11.1524 7.44874 11.225 7.21202 11.225C6.97132 11.225 6.76129 11.1534 6.58171 11.0102C6.40224 10.8671 6.3125 10.6671 6.3125 10.4099C6.3125 10.1852 6.39819 9.99397 6.56978 9.83636C6.74146 9.67882 6.95176 9.60001 7.20029 9.60001C7.44874 9.60001 7.66092 9.67882 7.83661 9.83636C8.01214 9.99397 8.1 10.1852 8.1 10.4099C8.1 10.6634 8.01122 10.8627 7.83361 11.0076ZM6.5698 3.03332C6.73257 2.86799 6.94586 2.78348 7.20627 2.775C7.46647 2.78348 7.67979 2.86799 7.84254 3.03332C8.01403 3.20771 8.1 3.45068 8.1 3.76217C8.1 3.9909 7.76254 8.19825 7.67979 8.36893C7.5968 8.53974 7.4488 8.625 7.23567 8.625C7.22505 8.625 7.21661 8.62208 7.20627 8.62153C7.19592 8.62208 7.18717 8.625 7.17664 8.625C6.96354 8.625 6.81562 8.53974 6.73276 8.36893C6.64976 8.19825 6.3125 3.9909 6.3125 3.76217C6.3125 3.45068 6.3982 3.20771 6.5698 3.03332ZM7.12497 0.5C3.53515 0.5 0.625 3.41017 0.625 6.99998C0.625 10.5898 3.53515 13.5 7.12497 13.5C10.7149 13.5 13.625 10.5898 13.625 6.99998C13.625 3.41017 10.7149 0.5 7.12497 0.5Z" fill="#FFCD0B"/>
</svg>