<svg width="14" height="14" viewBox="0 0 14 14" fill="none" xmlns="http://www.w3.org/2000/svg">
    <path fill-rule="evenodd" clip-rule="evenodd" d="M10.699 4.83676L6.60058 9.94414C6.57194 9.97989 6.53923 10.0124 6.50369 10.0412C6.22744 10.2643 5.82322 10.2208 5.60059 9.94414L3.55147 7.39025C3.34773 7.13654 3.36805 6.7695 3.5992 6.54017L3.85534 6.28484C4.09239 6.04901 4.47041 6.03439 4.72472 6.25173L5.97313 7.63014L9.76161 3.97247C9.87922 3.86237 10.0342 3.80062 10.1951 3.80001C10.5491 3.79778 10.8378 4.08358 10.8398 4.43823C10.8398 4.58326 10.79 4.72403 10.699 4.83676ZM7.12549 0.5C3.53566 0.5 0.625488 3.41017 0.625488 7C0.625488 10.5898 3.53566 13.5 7.12549 13.5C10.7153 13.5 13.6255 10.5898 13.6255 7C13.6255 3.41017 10.7153 0.5 7.12549 0.5Z" fill="#3DE35A"/>
</svg>