<svg width="22" height="18" viewBox="0 0 22 18" fill="none" xmlns="http://www.w3.org/2000/svg">
    <path fill-rule="evenodd" clip-rule="evenodd" d="M21.0625 15.9249H20.9577C20.4484 15.9249 19.96 15.7226 19.5999 15.3625C19.2398 15.0024 19.0375 14.514 19.0375 14.0047V13.8999H2.8375V14.0047C2.8375 14.2569 2.78783 14.5066 2.69133 14.7395C2.59483 14.9725 2.45339 15.1842 2.27509 15.3625C2.09678 15.5408 1.8851 15.6822 1.65213 15.7787C1.41917 15.8752 1.16947 15.9249 0.917311 15.9249H0.812497C0.633476 15.9249 0.461787 15.996 0.3352 16.1226C0.208613 16.2492 0.137497 16.4209 0.137497 16.5999V17.2749H21.7375V16.5999C21.7375 16.4209 21.6664 16.2492 21.5398 16.1226C21.4132 15.996 21.2415 15.9249 21.0625 15.9249ZM12.2875 3.7749H11.6125V2.4249H13.6375V1.7499C13.6375 1.39186 13.4953 1.04848 13.2421 0.795308C12.9889 0.542134 12.6455 0.399902 12.2875 0.399902H9.5875C9.22945 0.399902 8.88608 0.542134 8.6329 0.795308C8.37973 1.04848 8.2375 1.39186 8.2375 1.7499V2.4249H10.2625V3.7749H9.5875C4.3684 3.7749 0.137497 8.0058 0.137497 13.2249H21.7375C21.7375 8.0058 17.5066 3.7749 12.2875 3.7749Z" fill="black"/>
</svg>
