<svg width="18" height="15" viewBox="0 0 18 15" fill="none" xmlns="http://www.w3.org/2000/svg">
    <path fill-rule="evenodd" clip-rule="evenodd" d="M16.6172 2.26774H8.48044C8.23417 1.32386 7.38105 0.625 6.36693 0.625C5.35233 0.625 4.49969 1.32386 4.25342 2.26774H1.38278C1.10245 2.26774 0.875 2.49681 0.875 2.77873C0.875 3.06113 1.10245 3.28972 1.38278 3.28972H4.2296C4.44229 4.28075 5.31946 5.02604 6.36693 5.02604C7.41439 5.02604 8.29157 4.28075 8.50378 3.28972H16.6172C16.898 3.28972 17.125 3.06113 17.125 2.77873C17.125 2.49681 16.898 2.26774 16.6172 2.26774ZM16.6172 7.13756H14.0848C13.8385 6.19368 12.9859 5.49435 11.9713 5.49435C10.9567 5.49435 10.104 6.19392 9.85776 7.13756H1.38278C1.10245 7.13756 0.875 7.36615 0.875 7.64855C0.875 7.93096 1.10245 8.15954 1.38278 8.15954H9.83442C10.0471 9.15009 10.9243 9.89539 11.9713 9.89539C13.019 9.89539 13.8959 9.15009 14.1086 8.15954H16.6172C16.898 8.15954 17.125 7.93096 17.125 7.64855C17.125 7.36615 16.898 7.13756 16.6172 7.13756ZM10.7733 11.832H16.6172C16.898 11.832 17.125 12.0606 17.125 12.343C17.125 12.6254 16.898 12.854 16.6172 12.854H10.7966C10.5839 13.8445 9.70724 14.5898 8.65978 14.5898C7.61231 14.5898 6.73514 13.8445 6.52245 12.854H1.38278C1.10245 12.854 0.875 12.6254 0.875 12.343C0.875 12.0606 1.10245 11.832 1.38278 11.832H6.54579C6.79206 10.8883 7.64518 10.1888 8.65978 10.1888C9.67437 10.1888 10.527 10.8881 10.7733 11.832Z" fill="black"/>
</svg>