<svg width="14" height="12" viewBox="0 0 14 12" fill="none" xmlns="http://www.w3.org/2000/svg">
    <path fill-rule="evenodd" clip-rule="evenodd" d="M9.35925 9.45053C9.24322 9.56629 9.09106 9.62425 8.93909 9.62425C8.78709 9.62425 8.63496 9.56629 8.51896 9.45053L7.12498 8.05871L5.73098 9.45053C5.61502 9.56629 5.46294 9.62425 5.31092 9.62425C5.15882 9.62425 5.00676 9.56629 4.89075 9.45048C4.65878 9.21881 4.65878 8.84321 4.89085 8.61153L6.28481 7.21986L4.94039 5.87763C4.70845 5.64595 4.70845 5.2704 4.94039 5.03866C5.1725 4.80715 5.54862 4.80715 5.78071 5.03866L7.12507 6.38096L8.46944 5.03866C8.7015 4.80715 9.07775 4.80715 9.30972 5.03866C9.54173 5.2704 9.54173 5.64602 9.30966 5.87763L7.96528 7.21986L9.35925 8.61153C9.5912 8.84328 9.5912 9.21881 9.35925 9.45053ZM13.4281 9.61874L13.4282 9.61867L8.37269 0.965517L8.37253 0.965604C8.122 0.537677 7.65729 0.25 7.125 0.25C6.59271 0.25 6.128 0.537677 5.87745 0.965604L5.87731 0.965517L0.834179 9.59739C0.834005 9.59767 0.833832 9.59796 0.833641 9.59831L0.821768 9.61867L0.821889 9.61874C0.696933 9.83212 0.625 10.0802 0.625 10.3453C0.625 11.1418 1.27169 11.7875 2.06946 11.7875H12.1806C12.9783 11.7875 13.625 11.1418 13.625 10.3453C13.625 10.0802 13.553 9.83212 13.4281 9.61874Z" fill="#E70002"/>
</svg>